<svg width="22" height="22" viewBox="0 0 22 22" fill="none" xmlns="http://www.w3.org/2000/svg">
<path d="M15.4582 3.74928V2.38428C15.4582 2.02553 15.1607 1.72803 14.802 1.72803C14.4432 1.72803 14.1457 2.02553 14.1457 2.38428V3.69678H8.45821V2.38428C8.45821 2.02553 8.16071 1.72803 7.80196 1.72803C7.44321 1.72803 7.14571 2.02553 7.14571 2.38428V3.74928C4.78321 3.96803 3.63696 5.37678 3.46196 7.46803C3.44446 7.72178 3.65446 7.93178 3.89946 7.93178H18.7045C18.9582 7.93178 19.1682 7.71303 19.142 7.46803C18.967 5.37678 17.8207 3.96803 15.4582 3.74928Z" fill="#0C1E33"/>
<path d="M18.3027 9.24426H4.30273C3.82148 9.24426 3.42773 9.63801 3.42773 10.1193V15.5093C3.42773 18.1343 4.74023 19.8843 7.80273 19.8843H14.8027C17.8652 19.8843 19.1777 18.1343 19.1777 15.5093V10.1193C19.1777 9.63801 18.784 9.24426 18.3027 9.24426ZM8.86148 16.568C8.77398 16.6468 8.67773 16.708 8.57273 16.7518C8.46773 16.7955 8.35398 16.8218 8.24023 16.8218C8.12648 16.8218 8.01273 16.7955 7.90773 16.7518C7.80273 16.708 7.70648 16.6468 7.61898 16.568C7.46148 16.4018 7.36523 16.1743 7.36523 15.9468C7.36523 15.7193 7.46148 15.4918 7.61898 15.3255C7.70648 15.2468 7.80273 15.1855 7.90773 15.1418C8.11773 15.0543 8.36273 15.0543 8.57273 15.1418C8.67773 15.1855 8.77398 15.2468 8.86148 15.3255C9.01898 15.4918 9.11523 15.7193 9.11523 15.9468C9.11523 16.1743 9.01898 16.4018 8.86148 16.568ZM9.04523 13.2168C9.00148 13.3218 8.94023 13.418 8.86148 13.5055C8.77398 13.5843 8.67773 13.6455 8.57273 13.6893C8.46773 13.733 8.35398 13.7593 8.24023 13.7593C8.12648 13.7593 8.01273 13.733 7.90773 13.6893C7.80273 13.6455 7.70648 13.5843 7.61898 13.5055C7.54023 13.418 7.47898 13.3218 7.43523 13.2168C7.39148 13.1118 7.36523 12.998 7.36523 12.8843C7.36523 12.7705 7.39148 12.6568 7.43523 12.5518C7.47898 12.4468 7.54023 12.3505 7.61898 12.263C7.70648 12.1843 7.80273 12.123 7.90773 12.0793C8.11773 11.9918 8.36273 11.9918 8.57273 12.0793C8.67773 12.123 8.77398 12.1843 8.86148 12.263C8.94023 12.3505 9.00148 12.4468 9.04523 12.5518C9.08898 12.6568 9.11523 12.7705 9.11523 12.8843C9.11523 12.998 9.08898 13.1118 9.04523 13.2168ZM11.924 13.5055C11.8365 13.5843 11.7402 13.6455 11.6352 13.6893C11.5302 13.733 11.4165 13.7593 11.3027 13.7593C11.189 13.7593 11.0752 13.733 10.9702 13.6893C10.8652 13.6455 10.769 13.5843 10.6815 13.5055C10.524 13.3393 10.4277 13.1118 10.4277 12.8843C10.4277 12.6568 10.524 12.4293 10.6815 12.263C10.769 12.1843 10.8652 12.123 10.9702 12.0793C11.1802 11.983 11.4252 11.983 11.6352 12.0793C11.7402 12.123 11.8365 12.1843 11.924 12.263C12.0815 12.4293 12.1777 12.6568 12.1777 12.8843C12.1777 13.1118 12.0815 13.3393 11.924 13.5055Z" fill="#0C1E33"/>
</svg>
