<svg width="22" height="22" viewBox="0 0 22 22" fill="none" xmlns="http://www.w3.org/2000/svg">
<path d="M11.3027 2.38428C6.48148 2.38428 2.55273 6.31303 2.55273 11.1343C2.55273 15.9555 6.48148 19.8843 11.3027 19.8843C16.124 19.8843 20.0527 15.9555 20.0527 11.1343C20.0527 6.31303 16.124 2.38428 11.3027 2.38428ZM15.109 14.258C14.9865 14.468 14.7677 14.5818 14.5402 14.5818C14.4265 14.5818 14.3127 14.5555 14.2077 14.4855L11.4952 12.8668C10.8215 12.4643 10.3227 11.5805 10.3227 10.8018V7.21428C10.3227 6.85553 10.6202 6.55803 10.979 6.55803C11.3377 6.55803 11.6352 6.85553 11.6352 7.21428V10.8018C11.6352 11.1168 11.8977 11.5805 12.169 11.738L14.8815 13.3568C15.1965 13.5405 15.3015 13.943 15.109 14.258Z" fill="#0C1E33"/>
</svg>
