<svg width="23" height="25" viewBox="0 0 23 25" fill="none" xmlns="http://www.w3.org/2000/svg">
<path d="M21.4519 18.125V6.875C21.4519 5.8375 20.6955 5 19.7584 5H3.94062C3.00352 5 2.24707 5.8375 2.24707 6.875V18.125C2.24707 19.1625 3.00352 20 3.94062 20H19.7584C20.6955 20 21.4519 19.1625 21.4519 18.125ZM19.9729 6.7375C20.3455 7.15 20.1422 7.575 19.939 7.7875L15.3551 12.4375L19.7584 17.5125C19.8938 17.6875 19.9842 17.9625 19.8261 18.15C19.6793 18.35 19.3406 18.3375 19.1938 18.2125L14.26 13.55L11.8438 15.9875L9.43901 13.55L4.50513 18.2125C4.35836 18.3375 4.01965 18.35 3.87288 18.15C3.71481 17.9625 3.80513 17.6875 3.94062 17.5125L8.34384 12.4375L3.75997 7.7875C3.55675 7.575 3.35352 7.15 3.7261 6.7375C4.09868 6.325 4.48255 6.525 4.79868 6.825L11.8438 13.125L18.9003 6.825C19.2164 6.525 19.6003 6.325 19.9729 6.7375Z" fill="#0A111F"/>
</svg>
