<svg width="23" height="25" viewBox="0 0 23 25" fill="none" xmlns="http://www.w3.org/2000/svg">
<path d="M13.1722 13.5417H17.8765V11.4584H13.1722V13.5417ZM13.1722 10.4167H17.8765V8.33335H13.1722V10.4167ZM4.70442 16.6667H12.2313V16.0938C12.2313 15.3125 11.8863 14.692 11.1964 14.2323C10.5064 13.7726 9.59689 13.5424 8.46786 13.5417C7.33882 13.541 6.42933 13.7712 5.73936 14.2323C5.0494 14.6934 4.70442 15.3139 4.70442 16.0938V16.6667ZM8.46786 12.5C8.98533 12.5 9.42848 12.2962 9.79729 11.8886C10.1661 11.4809 10.3502 10.9903 10.3496 10.4167C10.349 9.84308 10.1649 9.3528 9.79729 8.94585C9.42973 8.53891 8.98658 8.33474 8.46786 8.33335C7.94913 8.33196 7.5063 8.53613 7.13936 8.94585C6.77243 9.35558 6.58802 9.84585 6.58614 10.4167C6.58425 10.9875 6.76866 11.4781 7.13936 11.8886C7.51006 12.299 7.95289 12.5028 8.46786 12.5ZM3.76356 20.8334C3.24608 20.8334 2.80325 20.6295 2.43506 20.2219C2.06687 19.8143 1.88246 19.3236 1.88184 18.75V6.25002C1.88184 5.6771 2.06624 5.18683 2.43506 4.77919C2.80388 4.37155 3.24671 4.16738 3.76356 4.16669H18.8173C19.3348 4.16669 19.7779 4.37085 20.1468 4.77919C20.5156 5.18752 20.6997 5.6778 20.699 6.25002V18.75C20.699 19.3229 20.5149 19.8136 20.1468 20.2219C19.7786 20.6302 19.3354 20.834 18.8173 20.8334H3.76356Z" fill="#0A111F"/>
</svg>
