<svg width="21" height="22" viewBox="0 0 21 22" fill="none" xmlns="http://www.w3.org/2000/svg">
<path d="M12.6604 0V3.06317H15.6799L11.6998 7.4404C10.583 6.64024 9.25177 6.17589 7.82246 6.17589C3.87567 6.17589 0.675781 9.71793 0.675781 14.0876C0.675765 18.4573 3.87567 22 7.82246 22C11.7692 22 14.9685 18.4573 14.9685 14.0876C14.9685 12.4267 14.5065 10.8853 13.7166 9.61261L17.6299 5.28005V8.59375H20.3966C20.3966 5.90837 20.4229 2.67839 20.4225 0H12.6604ZM7.82246 9.36054C10.1807 9.36054 12.092 11.4767 12.092 14.0876C12.092 16.6985 10.1807 18.8154 7.82246 18.8154C5.46424 18.8154 3.55222 16.6985 3.55222 14.0876C3.55222 11.4767 5.46422 9.36054 7.82246 9.36054Z" fill="#0A111F"/>
</svg>
