<svg width="22" height="22" viewBox="0 0 22 22" fill="none" xmlns="http://www.w3.org/2000/svg">
<path d="M18.8457 8.02803C17.9269 3.98553 14.4007 2.16553 11.3032 2.16553C11.3032 2.16553 11.3032 2.16553 11.2944 2.16553C8.20568 2.16553 4.67068 3.97678 3.75193 8.01928C2.72818 12.5343 5.49318 16.358 7.99568 18.7643C8.92318 19.6568 10.1132 20.103 11.3032 20.103C12.4932 20.103 13.6832 19.6568 14.6019 18.7643C17.1044 16.358 19.8694 12.543 18.8457 8.02803ZM11.3032 12.4118C9.78068 12.4118 8.54693 11.178 8.54693 9.65553C8.54693 8.13303 9.78068 6.89928 11.3032 6.89928C12.8257 6.89928 14.0594 8.13303 14.0594 9.65553C14.0594 11.178 12.8257 12.4118 11.3032 12.4118Z" fill="#0C1E33"/>
</svg>
