<svg width="84" height="83" viewBox="0 0 84 83" fill="none" xmlns="http://www.w3.org/2000/svg">
<mask id="mask0_2811_24234" style="mask-type:luminance" maskUnits="userSpaceOnUse" x="0" y="0" width="84" height="83">
<path d="M83.5 0.0703125H0.5V82.356H83.5V0.0703125Z" fill="white"/>
</mask>
<g mask="url(#mask0_2811_24234)">
<path d="M42.0687 6.92773C61.712 6.92773 76.583 22.8945 76.583 41.1619C76.583 62.3479 59.153 75.499 41.9995 75.499C36.328 75.499 30.0337 73.9883 24.9845 71.0352C23.2207 69.9707 21.7337 69.181 19.8317 69.7992L12.8457 71.8594C11.082 72.4087 9.49123 71.0352 10.01 69.181L12.327 61.4896C12.7075 60.425 12.6382 59.2918 12.085 58.3993C9.11072 52.9738 7.41623 47.0335 7.41623 41.2648C7.41623 23.2036 21.9757 6.92773 42.0687 6.92773ZM57.8732 36.9039C55.418 36.9039 53.4467 38.8613 53.4467 41.2992C53.4467 43.7028 55.418 45.6943 57.8732 45.6943C60.3287 45.6943 62.3 43.7028 62.3 41.2992C62.3 38.8613 60.3287 36.9039 57.8732 36.9039ZM41.9305 36.9039C39.5095 36.8697 37.5037 38.8613 37.5037 41.2648C37.5037 43.7028 39.475 45.6601 41.9305 45.6943C44.3857 45.6943 46.357 43.7028 46.357 41.2992C46.357 38.8613 44.3857 36.9039 41.9305 36.9039ZM25.9875 36.9039C23.532 36.9039 21.5607 38.8613 21.5607 41.2992C21.5607 43.7028 23.5667 45.6943 25.9875 45.6943C28.443 45.6601 30.4142 43.7028 30.4142 41.2992C30.4142 38.8613 28.443 36.9039 25.9875 36.9039Z" fill="#004B93"/>
<path d="M62.7495 27.4989C70.3894 27.4989 76.5828 21.3588 76.5828 13.7846C76.5828 6.2104 70.3894 0.0703125 62.7495 0.0703125C55.1095 0.0703125 48.9162 6.2104 48.9162 13.7846C48.9162 21.3588 55.1095 27.4989 62.7495 27.4989Z" fill="#2196F3"/>
</g>
</svg>
