<svg width="23" height="25" viewBox="0 0 23 25" fill="none" xmlns="http://www.w3.org/2000/svg">
<path d="M16.6599 16.3615C16.6961 16.3214 16.7391 16.2895 16.7864 16.2678C16.8337 16.2461 16.8844 16.2349 16.9356 16.2349C16.9868 16.2349 17.0375 16.2461 17.0848 16.2678C17.1321 16.2895 17.1751 16.3214 17.2113 16.3615C17.5383 16.7236 17.9574 16.9666 18.4125 17.058C18.8676 17.1494 19.3371 17.0848 19.7582 16.873V20.8334C20.0077 20.8334 20.247 20.9431 20.4235 21.1385C20.5999 21.3338 20.699 21.5988 20.699 21.875C20.699 22.1513 20.5999 22.4163 20.4235 22.6116C20.247 22.807 20.0077 22.9167 19.7582 22.9167H2.8227C2.57316 22.9167 2.33385 22.807 2.15741 22.6116C1.98096 22.4163 1.88184 22.1513 1.88184 21.875C1.88184 21.5988 1.98096 21.3338 2.15741 21.1385C2.33385 20.9431 2.57316 20.8334 2.8227 20.8334V16.873C3.66006 17.2948 4.68089 17.124 5.3696 16.3625C5.40578 16.3224 5.44875 16.2906 5.49606 16.2689C5.54336 16.2471 5.59407 16.236 5.64528 16.236C5.69649 16.236 5.74719 16.2471 5.7945 16.2689C5.8418 16.2906 5.88477 16.3224 5.92095 16.3625C6.13185 16.5961 6.38224 16.7813 6.6578 16.9077C6.93337 17.034 7.22872 17.0991 7.527 17.0991C7.82527 17.0991 8.12062 17.034 8.39619 16.9077C8.67176 16.7813 8.92214 16.5961 9.13304 16.3625C9.16922 16.3224 9.21219 16.2906 9.2595 16.2689C9.3068 16.2471 9.35751 16.236 9.40872 16.236C9.45993 16.236 9.51063 16.2471 9.55794 16.2689C9.60524 16.2906 9.64821 16.3224 9.68439 16.3625C9.8953 16.5961 10.1457 16.7813 10.4212 16.9077C10.6968 17.034 10.9922 17.0991 11.2904 17.0991C11.5887 17.0991 11.8841 17.034 12.1596 16.9077C12.4352 16.7813 12.6856 16.5961 12.8965 16.3625C12.9327 16.3224 12.9756 16.2906 13.0229 16.2689C13.0702 16.2471 13.1209 16.236 13.1722 16.236C13.2234 16.236 13.2741 16.2471 13.3214 16.2689C13.3687 16.2906 13.4117 16.3224 13.4478 16.3625C13.6587 16.5961 13.9091 16.7813 14.1847 16.9077C14.4603 17.034 14.7556 17.0991 15.0539 17.0991C15.3522 17.0991 15.6475 17.034 15.9231 16.9077C16.1986 16.7813 16.449 16.5961 16.6599 16.3625V16.3615ZM15.0539 6.25004C15.3034 6.25004 15.5427 6.35979 15.7192 6.55514C15.8956 6.75049 15.9947 7.01544 15.9947 7.29171V9.37504H16.9356C17.6842 9.37504 18.4021 9.70428 18.9315 10.2903C19.4608 10.8764 19.7582 11.6712 19.7582 12.5V14.1521L19.093 14.8886C19.0568 14.9287 19.0138 14.9605 18.9665 14.9823C18.9192 15.004 18.8685 15.0152 18.8173 15.0152C18.7661 15.0152 18.7154 15.004 18.6681 14.9823C18.6208 14.9605 18.5778 14.9287 18.5416 14.8886C18.3307 14.6551 18.0804 14.4698 17.8048 14.3435C17.5292 14.2171 17.2339 14.152 16.9356 14.152C16.6373 14.152 16.342 14.2171 16.0664 14.3435C15.7908 14.4698 15.5405 14.6551 15.3295 14.8886C15.2934 14.9287 15.2504 14.9605 15.2031 14.9823C15.1558 15.004 15.1051 15.0152 15.0539 15.0152C15.0027 15.0152 14.952 15.004 14.9047 14.9823C14.8574 14.9605 14.8144 14.9287 14.7782 14.8886C14.5673 14.6551 14.3169 14.4698 14.0414 14.3435C13.7658 14.2171 13.4704 14.152 13.1722 14.152C12.8739 14.152 12.5785 14.2171 12.303 14.3435C12.0274 14.4698 11.777 14.6551 11.5661 14.8886C11.5299 14.9287 11.487 14.9605 11.4397 14.9823C11.3924 15.004 11.3416 15.0152 11.2904 15.0152C11.2392 15.0152 11.1885 15.004 11.1412 14.9823C11.0939 14.9605 11.0509 14.9287 11.0148 14.8886C10.8039 14.6551 10.5535 14.4698 10.2779 14.3435C10.0023 14.2171 9.70699 14.152 9.40872 14.152C9.11044 14.152 8.81509 14.2171 8.53953 14.3435C8.26396 14.4698 8.01357 14.6551 7.80267 14.8886C7.76649 14.9287 7.72352 14.9605 7.67622 14.9823C7.62891 15.004 7.57821 15.0152 7.527 15.0152C7.47579 15.0152 7.42508 15.004 7.37778 14.9823C7.33047 14.9605 7.2875 14.9287 7.25132 14.8886C7.04042 14.6551 6.79004 14.4698 6.51447 14.3435C6.2389 14.2171 5.94355 14.152 5.64528 14.152C5.347 14.152 5.05165 14.2171 4.77608 14.3435C4.50052 14.4698 4.25013 14.6551 4.03923 14.8886C4.00305 14.9287 3.96008 14.9605 3.91278 14.9823C3.86547 15.004 3.81477 15.0152 3.76356 15.0152C3.71235 15.0152 3.66164 15.004 3.61434 14.9823C3.56703 14.9605 3.52406 14.9287 3.48788 14.8886L2.8227 14.1521V12.5C2.8227 11.6712 3.12007 10.8764 3.64941 10.2903C4.17875 9.70428 4.89668 9.37504 5.64528 9.37504H6.58614V7.29171C6.58614 7.01544 6.68526 6.75049 6.86171 6.55514C7.03815 6.35979 7.27747 6.25004 7.527 6.25004C7.77653 6.25004 8.01584 6.35979 8.19229 6.55514C8.36873 6.75049 8.46786 7.01544 8.46786 7.29171V9.37504H10.3496V7.29171C10.3496 7.01544 10.4487 6.75049 10.6251 6.55514C10.8016 6.35979 11.0409 6.25004 11.2904 6.25004C11.54 6.25004 11.7793 6.35979 11.9557 6.55514C12.1322 6.75049 12.2313 7.01544 12.2313 7.29171V9.37504H14.113V7.29171C14.113 7.01544 14.2121 6.75049 14.3886 6.55514C14.565 6.35979 14.8043 6.25004 15.0539 6.25004ZM11.7609 2.08337C11.4607 2.74796 11.7345 3.17712 11.9726 3.55212C12.108 3.76358 12.2313 3.95837 12.2313 4.16671C12.2313 4.44297 12.1322 4.70793 11.9557 4.90328C11.7793 5.09863 11.54 5.20837 11.2904 5.20837C11.0409 5.20837 10.8016 5.09863 10.6251 4.90328C10.4487 4.70793 10.3496 4.44297 10.3496 4.16671C10.3496 3.59171 10.82 2.60421 11.7609 2.08337ZM7.99743 2.08337C7.69729 2.74796 7.97108 3.17712 8.20912 3.55212C8.3446 3.76358 8.46786 3.95837 8.46786 4.16671C8.46786 4.44297 8.36873 4.70793 8.19229 4.90328C8.01584 5.09863 7.77653 5.20837 7.527 5.20837C7.27747 5.20837 7.03815 5.09863 6.86171 4.90328C6.68526 4.70793 6.58614 4.44297 6.58614 4.16671C6.58614 3.59171 7.05657 2.60421 7.99743 2.08337ZM15.5243 2.08337C15.2242 2.74796 15.498 3.17712 15.736 3.55212C15.8715 3.76358 15.9947 3.95837 15.9947 4.16671C15.9947 4.44297 15.8956 4.70793 15.7192 4.90328C15.5427 5.09863 15.3034 5.20837 15.0539 5.20837C14.8043 5.20837 14.565 5.09863 14.3886 4.90328C14.2121 4.70793 14.113 4.44297 14.113 4.16671C14.113 3.59171 14.5834 2.60421 15.5243 2.08337Z" fill="#0A111F"/>
</svg>
