<svg width="24" height="24" viewBox="0 0 24 24" fill="none" xmlns="http://www.w3.org/2000/svg">
<path d="M21.3554 4.93335L12.3554 1.93335C12.1249 1.85555 11.8752 1.85555 11.6447 1.93335L2.64473 4.93335C2.42998 5.00448 2.24166 5.13869 2.10436 5.31848C1.96705 5.49826 1.88714 5.71527 1.87504 5.94116C1.87401 5.96084 1.87401 5.98055 1.87504 6.00023V13.5002C1.87504 13.7986 1.99357 14.0847 2.20455 14.2957C2.41553 14.5067 2.70167 14.6252 3.00004 14.6252C3.29841 14.6252 3.58456 14.5067 3.79554 14.2957C4.00652 14.0847 4.12504 13.7986 4.12504 13.5002V7.56117L6.34786 8.30179C5.658 9.62226 5.453 11.1428 5.76853 12.5988C6.08405 14.0548 6.90013 15.3541 8.07473 16.2705C6.53763 17.0285 5.23676 18.192 4.31254 19.6352C4.22932 19.7589 4.17151 19.8979 4.14247 20.0442C4.11344 20.1904 4.11377 20.341 4.14343 20.4871C4.17309 20.6332 4.2315 20.7719 4.31526 20.8953C4.39902 21.0186 4.50647 21.1241 4.63134 21.2055C4.75622 21.287 4.89604 21.3428 5.04268 21.3697C5.18932 21.3967 5.33985 21.3942 5.48552 21.3624C5.63119 21.3307 5.7691 21.2703 5.89123 21.1848C6.01335 21.0993 6.11726 20.9903 6.19692 20.8643C7.53473 18.8055 9.65629 17.6252 12 17.6252C14.3438 17.6252 16.4654 18.8055 17.8079 20.8643C17.8875 20.9903 17.9914 21.0993 18.1135 21.1848C18.2357 21.2703 18.3736 21.3307 18.5193 21.3624C18.6649 21.3942 18.8155 21.3967 18.9621 21.3697C19.1087 21.3428 19.2486 21.287 19.3734 21.2055C19.4983 21.1241 19.6057 21.0186 19.6895 20.8953C19.7733 20.7719 19.8317 20.6332 19.8613 20.4871C19.891 20.341 19.8913 20.1904 19.8623 20.0442C19.8333 19.8979 19.7755 19.7589 19.6922 19.6352C18.7671 18.1903 17.4645 17.0258 15.9254 16.2677C17.1 15.3513 17.916 14.052 18.2316 12.596C18.5471 11.14 18.3421 9.61944 17.6522 8.29898L21.3554 7.06429C21.5791 6.98944 21.7736 6.84616 21.9114 6.65471C22.0493 6.46326 22.1234 6.23332 22.1234 5.99742C22.1234 5.76151 22.0493 5.53157 21.9114 5.34012C21.7736 5.14867 21.5791 5.00539 21.3554 4.93054V4.93335ZM12 4.18335L17.4422 6.00023L12 7.81429L6.56254 6.00023L12 4.18335ZM16.125 11.2502C16.1252 11.8909 15.976 12.5229 15.6895 13.0959C15.4029 13.669 14.9868 14.1674 14.4741 14.5517C13.9614 14.936 13.3662 15.1956 12.7358 15.3099C12.1054 15.4241 11.457 15.39 10.842 15.2101C10.2271 15.0302 9.66246 14.7096 9.19297 14.2736C8.72349 13.8376 8.36203 13.2982 8.13724 12.6982C7.91245 12.0982 7.83052 11.4541 7.89795 10.8169C7.96537 10.1798 8.18029 9.56708 8.52567 9.02742L11.6447 10.0671C11.8753 10.1446 12.1248 10.1446 12.3554 10.0671L15.4744 9.02742C15.8998 9.69068 16.1257 10.4622 16.125 11.2502Z" fill="#EFF2F4"/>
</svg>
