<svg width="22" height="24" viewBox="0 0 22 24" fill="none" xmlns="http://www.w3.org/2000/svg">
<path d="M17.369 15.26L15.0748 14.97C14.805 14.9349 14.5316 14.968 14.275 15.0667C14.0185 15.1654 13.7855 15.3273 13.5935 15.54L11.9316 17.38C9.36765 15.9359 7.28361 13.6286 5.9793 10.79L7.65026 8.94001C8.03865 8.51001 8.22833 7.91001 8.1651 7.30001L7.90317 4.78001C7.85215 4.2921 7.64075 3.84204 7.30926 3.51561C6.97778 3.18918 6.54939 3.00921 6.10575 3.01001H4.54317C3.52252 3.01001 2.67349 3.95001 2.73672 5.08001C3.21543 13.62 9.38446 20.44 17.089 20.97C18.1096 21.04 18.9587 20.1 18.9587 18.97V17.24C18.9677 16.23 18.2812 15.38 17.369 15.26Z" fill="#0A111F"/>
</svg>
