<svg width="17" height="20" viewBox="0 0 17 20" fill="none" xmlns="http://www.w3.org/2000/svg">
<path d="M17 7C17 6.08075 16.7801 5.1705 16.353 4.32122C15.9258 3.47194 15.2997 2.70026 14.5104 2.05025C13.7211 1.40024 12.7841 0.884626 11.7528 0.532843C10.7215 0.18106 9.61624 0 8.5 0C7.38376 0 6.27846 0.18106 5.24719 0.532843C4.21592 0.884626 3.27889 1.40024 2.48959 2.05025C1.70029 2.70026 1.07419 3.47194 0.647024 4.32122C0.219859 5.1705 -1.66332e-08 6.08075 0 7C0 8.387 0.496643 9.677 1.34179 10.765H1.33207L8.5 20L15.6679 10.765H15.6594C16.5348 9.6416 17.0001 8.33482 17 7ZM8.5 10C7.53385 10 6.60728 9.68393 5.92411 9.12132C5.24094 8.55871 4.85714 7.79565 4.85714 7C4.85714 6.20435 5.24094 5.44129 5.92411 4.87868C6.60728 4.31607 7.53385 4 8.5 4C9.46615 4 10.3927 4.31607 11.0759 4.87868C11.7591 5.44129 12.1429 6.20435 12.1429 7C12.1429 7.79565 11.7591 8.55871 11.0759 9.12132C10.3927 9.68393 9.46615 10 8.5 10Z" fill="#0A111F"/>
</svg>
