<svg width="23" height="25" viewBox="0 0 23 25" fill="none" xmlns="http://www.w3.org/2000/svg">
<path d="M18.4898 20.2136C19.0091 20.0938 19.3196 19.4917 19.0609 18.9771C18.4907 17.8448 17.5931 16.849 16.4453 16.0907C14.9662 15.1136 13.1532 14.5834 11.2903 14.5834C9.42739 14.5834 7.61435 15.1125 6.13532 16.0907C4.98747 16.849 4.08989 17.8448 3.51973 18.9771C3.26099 19.4917 3.57148 20.0938 4.09083 20.2136C8.83914 21.3093 13.7405 21.3093 18.4888 20.2136" fill="#0A111F"/>
<path d="M11.2902 13.5417C13.8884 13.5417 15.9945 11.2098 15.9945 8.33333C15.9945 5.45685 13.8884 3.125 11.2902 3.125C8.69212 3.125 6.58594 5.45685 6.58594 8.33333C6.58594 11.2098 8.69212 13.5417 11.2902 13.5417Z" fill="#0A111F"/>
</svg>
