<svg width="260" height="84" viewBox="0 0 260 84" fill="none" xmlns="http://www.w3.org/2000/svg">
<path d="M86.76 49H80.712L80.244 37.696C80.172 35.464 80.088 33.772 79.992 32.62H79.884C79.596 33.532 79.26 34.948 78.876 36.868L78.696 37.768L76.212 49H70.164L68.076 38.884L67.716 37.084C67.212 34.852 66.864 33.364 66.672 32.62H66.564C66.468 33.82 66.384 35.776 66.312 38.488C66.288 38.656 66.276 38.92 66.276 39.28L65.952 49H59.868L60.732 28.48H71.028L72.792 37.336L73.224 39.712C73.416 38.968 73.596 38.14 73.764 37.228L75.42 28.48H85.932L86.76 49ZM99.4767 49L98.9007 46.732C97.7967 48.532 96.2607 49.432 94.2927 49.432C92.6847 49.432 91.3647 48.988 90.3327 48.1C89.3247 47.188 88.8207 45.916 88.8207 44.284C88.8207 43.276 89.1087 42.4 89.6847 41.656C90.2847 40.888 91.1007 40.348 92.1327 40.036C93.4767 39.652 95.5527 39.436 98.3607 39.388C98.3607 37.804 98.2887 36.964 98.1447 36.868C98.0247 36.772 97.6407 36.724 96.9927 36.724C96.5847 36.724 96.0207 36.748 95.3007 36.796C94.1487 36.844 92.5887 36.976 90.6207 37.192C90.4287 35.896 90.2847 34.504 90.1887 33.016C91.4607 32.752 92.7927 32.536 94.1847 32.368C95.5767 32.176 96.8247 32.08 97.9287 32.08C99.8487 32.08 101.289 32.404 102.249 33.052C103.209 33.676 103.833 34.504 104.121 35.536C104.409 36.568 104.541 37.876 104.517 39.46L104.481 44.752L104.589 49H99.4767ZM96.3807 45.4C97.0047 45.4 97.6647 45.28 98.3607 45.04V42.376H98.0727C96.2967 42.376 95.3127 42.472 95.1207 42.664C95.0007 42.784 94.9047 42.964 94.8327 43.204C94.7847 43.444 94.7607 43.672 94.7607 43.888C94.7607 44.464 94.8927 44.86 95.1567 45.076C95.4207 45.292 95.8287 45.4 96.3807 45.4ZM120.688 43.384C120.688 45.52 120.004 47.056 118.636 47.992C117.292 48.928 115.372 49.396 112.876 49.396C111.124 49.396 109.108 49.144 106.828 48.64C106.876 48.16 106.984 47.476 107.152 46.588C107.344 45.676 107.5 44.98 107.62 44.5C108.484 44.644 109.444 44.764 110.5 44.86C111.556 44.932 112.456 44.968 113.2 44.968C113.848 44.968 114.244 44.932 114.388 44.86C114.412 44.836 114.436 44.776 114.46 44.68C114.508 44.56 114.532 44.44 114.532 44.32C114.532 43.84 114.232 43.516 113.632 43.348C113.44 43.3 112.708 43.096 111.436 42.736C110.164 42.376 109.12 41.728 108.304 40.792C107.512 39.832 107.116 38.644 107.116 37.228C107.116 36.484 107.284 35.656 107.62 34.744C107.956 33.832 108.316 33.256 108.7 33.016C108.988 32.824 109.684 32.632 110.788 32.44C111.892 32.224 112.912 32.116 113.848 32.116C115.84 32.116 117.844 32.26 119.86 32.548C119.86 32.98 119.8 33.712 119.68 34.744C119.56 35.752 119.452 36.388 119.356 36.652C117.316 36.388 115.672 36.256 114.424 36.256C113.776 36.256 113.356 36.292 113.164 36.364C113.116 36.388 113.068 36.46 113.02 36.58C112.972 36.676 112.948 36.808 112.948 36.976C112.948 37.312 113.056 37.552 113.272 37.696C113.488 37.864 114.052 38.068 114.964 38.308C116.044 38.62 116.968 38.944 117.736 39.28C118.528 39.616 119.212 40.12 119.788 40.792C120.388 41.464 120.688 42.328 120.688 43.384ZM138.75 33.484C138.966 33.748 139.122 34.408 139.218 35.464C139.338 36.52 139.398 38.128 139.398 40.288V49H133.242V40.36C133.242 40.264 133.242 39.796 133.242 38.956C133.242 38.092 133.182 37.564 133.062 37.372C132.99 37.276 132.81 37.204 132.522 37.156C132.258 37.108 131.946 37.084 131.586 37.084L130.974 37.12C130.302 37.144 129.606 37.3 128.886 37.588V49H122.73V27.4L128.886 27.148V31.36C128.886 33.088 128.826 34.24 128.706 34.816L128.742 34.852C130.374 33.004 132.33 32.08 134.61 32.08C135.474 32.08 136.278 32.2 137.022 32.44C137.79 32.68 138.366 33.028 138.75 33.484ZM152.106 49L151.53 46.732C150.426 48.532 148.89 49.432 146.922 49.432C145.314 49.432 143.994 48.988 142.962 48.1C141.954 47.188 141.45 45.916 141.45 44.284C141.45 43.276 141.738 42.4 142.314 41.656C142.914 40.888 143.73 40.348 144.762 40.036C146.106 39.652 148.182 39.436 150.99 39.388C150.99 37.804 150.918 36.964 150.774 36.868C150.654 36.772 150.27 36.724 149.622 36.724C149.214 36.724 148.65 36.748 147.93 36.796C146.778 36.844 145.218 36.976 143.25 37.192C143.058 35.896 142.914 34.504 142.818 33.016C144.09 32.752 145.422 32.536 146.814 32.368C148.206 32.176 149.454 32.08 150.558 32.08C152.478 32.08 153.918 32.404 154.878 33.052C155.838 33.676 156.462 34.504 156.75 35.536C157.038 36.568 157.17 37.876 157.146 39.46L157.11 44.752L157.218 49H152.106ZM149.01 45.4C149.634 45.4 150.294 45.28 150.99 45.04V42.376H150.702C148.926 42.376 147.942 42.472 147.75 42.664C147.63 42.784 147.534 42.964 147.462 43.204C147.414 43.444 147.39 43.672 147.39 43.888C147.39 44.464 147.522 44.86 147.786 45.076C148.05 45.292 148.458 45.4 149.01 45.4ZM171.049 32.08C172.921 32.08 174.361 32.644 175.369 33.772C176.401 34.9 176.917 36.892 176.917 39.748C176.917 41.836 176.701 43.624 176.269 45.112C175.861 46.576 175.393 47.512 174.865 47.92C174.241 48.424 173.317 48.796 172.093 49.036C170.869 49.276 169.477 49.396 167.917 49.396C166.717 49.396 165.373 49.3 163.885 49.108C162.397 48.94 161.065 48.664 159.889 48.28V27.4L166.117 27.148V30.532C166.117 30.724 166.105 31.168 166.081 31.864C166.081 32.56 166.057 33.148 166.009 33.628C165.961 34.084 165.889 34.432 165.793 34.672L166.009 34.924C166.561 34.084 167.257 33.4 168.097 32.872C168.937 32.344 169.921 32.08 171.049 32.08ZM170.041 45.076C170.185 44.836 170.305 44.272 170.401 43.384C170.521 42.496 170.581 41.644 170.581 40.828C170.581 39.868 170.533 39.112 170.437 38.56C170.365 38.008 170.161 37.576 169.825 37.264C169.513 36.928 169.021 36.76 168.349 36.76C167.749 36.76 166.981 36.844 166.045 37.012V45.148C166.933 45.292 167.857 45.364 168.817 45.364C169.513 45.364 169.921 45.268 170.041 45.076ZM179.404 27.4L185.56 27.148V49H179.404V27.4ZM198.657 44.68C199.257 44.68 200.373 44.62 202.005 44.5C202.221 44.5 202.617 44.476 203.193 44.428L203.733 48.136C201.885 49 199.485 49.432 196.533 49.432C193.773 49.432 191.649 48.736 190.161 47.344C188.697 45.952 187.965 43.852 187.965 41.044C187.965 39.604 188.145 38.212 188.505 36.868C188.889 35.524 189.321 34.588 189.801 34.06C190.305 33.532 191.241 33.076 192.609 32.692C193.977 32.308 195.333 32.116 196.677 32.116C198.837 32.116 200.457 32.5 201.537 33.268C202.617 34.036 203.325 35.104 203.661 36.472C203.997 37.816 204.165 39.628 204.165 41.908C202.533 42.004 200.937 42.052 199.377 42.052H194.265C194.265 42.82 194.421 43.396 194.733 43.78C195.069 44.164 195.537 44.416 196.137 44.536C196.737 44.632 197.577 44.68 198.657 44.68ZM194.625 36.4C194.481 36.472 194.373 36.784 194.301 37.336C194.229 37.888 194.181 38.512 194.157 39.208H196.029C197.157 39.208 197.973 39.196 198.477 39.172C198.477 38.02 198.309 37.204 197.973 36.724C197.661 36.244 197.109 36.004 196.317 36.004C195.669 36.004 195.105 36.136 194.625 36.4Z" fill="black"/>
</svg>
