<svg width="264" height="84" viewBox="0 0 264 84" fill="none" xmlns="http://www.w3.org/2000/svg">
<path d="M94.3864 37.6591C94.197 37.0455 93.9356 36.4962 93.6023 36.0114C93.2765 35.5189 92.8826 35.0985 92.4205 34.75C91.9659 34.4015 91.4432 34.1402 90.8523 33.9659C90.2614 33.7841 89.6174 33.6932 88.9205 33.6932C87.6705 33.6932 86.5568 34.0076 85.5795 34.6364C84.6023 35.2652 83.8333 36.1894 83.2727 37.4091C82.7197 38.6212 82.4432 40.0985 82.4432 41.8409C82.4432 43.5985 82.7197 45.0871 83.2727 46.3068C83.8258 47.5265 84.5947 48.4545 85.5795 49.0909C86.5644 49.7197 87.7083 50.0341 89.0114 50.0341C90.1932 50.0341 91.2159 49.8068 92.0795 49.3523C92.9508 48.8977 93.6212 48.2538 94.0909 47.4205C94.5606 46.5795 94.7955 45.5947 94.7955 44.4659L95.75 44.6136H89.4318V41.3182H98.875V44.1136C98.875 46.1061 98.4508 47.8295 97.6023 49.2841C96.7538 50.7386 95.5871 51.8598 94.1023 52.6477C92.6174 53.428 90.9129 53.8182 88.9886 53.8182C86.8447 53.8182 84.9621 53.3371 83.3409 52.375C81.7273 51.4053 80.4659 50.0303 79.5568 48.25C78.6553 46.4621 78.2045 44.3409 78.2045 41.8864C78.2045 40.0076 78.4697 38.3295 79 36.8523C79.5379 35.375 80.2879 34.1212 81.25 33.0909C82.2121 32.053 83.3409 31.2652 84.6364 30.7273C85.9318 30.1818 87.3409 29.9091 88.8636 29.9091C90.1515 29.9091 91.3523 30.0985 92.4659 30.4773C93.5795 30.8485 94.5682 31.3788 95.4318 32.0682C96.303 32.7576 97.0189 33.5758 97.5795 34.5227C98.1402 35.4697 98.5076 36.5152 98.6818 37.6591H94.3864ZM110.384 53.8409C108.679 53.8409 107.202 53.4659 105.952 52.7159C104.702 51.9659 103.732 50.9167 103.043 49.5682C102.361 48.2197 102.02 46.6439 102.02 44.8409C102.02 43.0379 102.361 41.4583 103.043 40.1023C103.732 38.7462 104.702 37.6932 105.952 36.9432C107.202 36.1932 108.679 35.8182 110.384 35.8182C112.088 35.8182 113.565 36.1932 114.815 36.9432C116.065 37.6932 117.031 38.7462 117.713 40.1023C118.402 41.4583 118.747 43.0379 118.747 44.8409C118.747 46.6439 118.402 48.2197 117.713 49.5682C117.031 50.9167 116.065 51.9659 114.815 52.7159C113.565 53.4659 112.088 53.8409 110.384 53.8409ZM110.406 50.5455C111.33 50.5455 112.103 50.2917 112.724 49.7841C113.346 49.2689 113.808 48.5795 114.111 47.7159C114.421 46.8523 114.577 45.8902 114.577 44.8295C114.577 43.7614 114.421 42.7955 114.111 41.9318C113.808 41.0606 113.346 40.3674 112.724 39.8523C112.103 39.3371 111.33 39.0795 110.406 39.0795C109.459 39.0795 108.671 39.3371 108.043 39.8523C107.421 40.3674 106.955 41.0606 106.645 41.9318C106.342 42.7955 106.19 43.7614 106.19 44.8295C106.19 45.8902 106.342 46.8523 106.645 47.7159C106.955 48.5795 107.421 49.2689 108.043 49.7841C108.671 50.2917 109.459 50.5455 110.406 50.5455ZM129.852 53.8409C128.148 53.8409 126.67 53.4659 125.42 52.7159C124.17 51.9659 123.201 50.9167 122.511 49.5682C121.83 48.2197 121.489 46.6439 121.489 44.8409C121.489 43.0379 121.83 41.4583 122.511 40.1023C123.201 38.7462 124.17 37.6932 125.42 36.9432C126.67 36.1932 128.148 35.8182 129.852 35.8182C131.557 35.8182 133.034 36.1932 134.284 36.9432C135.534 37.6932 136.5 38.7462 137.182 40.1023C137.871 41.4583 138.216 43.0379 138.216 44.8409C138.216 46.6439 137.871 48.2197 137.182 49.5682C136.5 50.9167 135.534 51.9659 134.284 52.7159C133.034 53.4659 131.557 53.8409 129.852 53.8409ZM129.875 50.5455C130.799 50.5455 131.572 50.2917 132.193 49.7841C132.814 49.2689 133.277 48.5795 133.58 47.7159C133.89 46.8523 134.045 45.8902 134.045 44.8295C134.045 43.7614 133.89 42.7955 133.58 41.9318C133.277 41.0606 132.814 40.3674 132.193 39.8523C131.572 39.3371 130.799 39.0795 129.875 39.0795C128.928 39.0795 128.14 39.3371 127.511 39.8523C126.89 40.3674 126.424 41.0606 126.114 41.9318C125.811 42.7955 125.659 43.7614 125.659 44.8295C125.659 45.8902 125.811 46.8523 126.114 47.7159C126.424 48.5795 126.89 49.2689 127.511 49.7841C128.14 50.2917 128.928 50.5455 129.875 50.5455ZM149.298 60.4091C147.821 60.4091 146.552 60.2083 145.491 59.8068C144.431 59.4129 143.579 58.8826 142.935 58.2159C142.291 57.5492 141.844 56.8106 141.594 56L145.298 55.1023C145.465 55.4432 145.707 55.7803 146.026 56.1136C146.344 56.4545 146.772 56.7348 147.31 56.9545C147.855 57.1818 148.541 57.2955 149.366 57.2955C150.533 57.2955 151.499 57.0114 152.264 56.4432C153.029 55.8826 153.412 54.9583 153.412 53.6705V50.3636H153.207C152.995 50.7879 152.685 51.2235 152.276 51.6705C151.874 52.1174 151.34 52.4924 150.673 52.7955C150.014 53.0985 149.185 53.25 148.185 53.25C146.844 53.25 145.628 52.9356 144.537 52.3068C143.454 51.6705 142.59 50.7235 141.946 49.4659C141.31 48.2008 140.991 46.6174 140.991 44.7159C140.991 42.7992 141.31 41.1818 141.946 39.8636C142.59 38.5379 143.457 37.5341 144.548 36.8523C145.639 36.1629 146.855 35.8182 148.196 35.8182C149.219 35.8182 150.06 35.9924 150.719 36.3409C151.385 36.6818 151.916 37.0947 152.31 37.5795C152.704 38.0568 153.003 38.5076 153.207 38.9318H153.435V36.0455H157.491V53.7841C157.491 55.2765 157.135 56.5114 156.423 57.4886C155.711 58.4659 154.738 59.197 153.503 59.6818C152.268 60.1667 150.866 60.4091 149.298 60.4091ZM149.332 50.0227C150.204 50.0227 150.946 49.8106 151.56 49.3864C152.173 48.9621 152.639 48.3523 152.957 47.5568C153.276 46.7614 153.435 45.8068 153.435 44.6932C153.435 43.5947 153.276 42.6326 152.957 41.8068C152.647 40.9811 152.185 40.3409 151.571 39.8864C150.965 39.4242 150.219 39.1932 149.332 39.1932C148.416 39.1932 147.651 39.4318 147.037 39.9091C146.423 40.3864 145.961 41.0417 145.651 41.875C145.34 42.7008 145.185 43.6402 145.185 44.6932C145.185 45.7614 145.34 46.697 145.651 47.5C145.969 48.2955 146.435 48.9167 147.048 49.3636C147.67 49.803 148.431 50.0227 149.332 50.0227ZM165.821 30.2273V53.5H161.707V30.2273H165.821ZM177.778 53.8409C176.028 53.8409 174.517 53.4773 173.244 52.75C171.979 52.0152 171.006 50.9773 170.324 49.6364C169.642 48.2879 169.301 46.7008 169.301 44.875C169.301 43.0795 169.642 41.5038 170.324 40.1477C171.013 38.7841 171.975 37.7235 173.21 36.9659C174.445 36.2008 175.896 35.8182 177.562 35.8182C178.638 35.8182 179.653 35.9924 180.608 36.3409C181.57 36.6818 182.419 37.2121 183.153 37.9318C183.896 38.6515 184.479 39.5682 184.903 40.6818C185.328 41.7879 185.54 43.1061 185.54 44.6364V45.8977H171.233V43.125H181.597C181.589 42.3371 181.419 41.6364 181.085 41.0227C180.752 40.4015 180.286 39.9129 179.688 39.5568C179.097 39.2008 178.407 39.0227 177.619 39.0227C176.778 39.0227 176.04 39.2273 175.403 39.6364C174.767 40.0379 174.271 40.5682 173.915 41.2273C173.566 41.8788 173.388 42.5947 173.381 43.375V45.7955C173.381 46.8106 173.566 47.6818 173.938 48.4091C174.309 49.1288 174.828 49.6818 175.494 50.0682C176.161 50.447 176.941 50.6364 177.835 50.6364C178.434 50.6364 178.975 50.553 179.46 50.3864C179.945 50.2121 180.366 49.9583 180.722 49.625C181.078 49.2917 181.347 48.8788 181.528 48.3864L185.369 48.8182C185.127 49.8333 184.665 50.7197 183.983 51.4773C183.309 52.2273 182.445 52.8106 181.392 53.2273C180.339 53.6364 179.134 53.8409 177.778 53.8409Z" fill="black"/>
</svg>
