<svg width="264" height="84" viewBox="0 0 264 84" fill="none" xmlns="http://www.w3.org/2000/svg">
<rect x="30.5" y="20" width="20" height="20" fill="black"/>
<rect x="53.5" y="20" width="20" height="20" fill="black"/>
<rect x="30.5" y="43" width="20" height="20" fill="black"/>
<rect x="53.5" y="43" width="20" height="20" fill="black"/>
<path d="M86.7955 30.2273H91.9545L98.8636 47.0909H99.1364L106.045 30.2273H111.205V53.5H107.159V37.5114H106.943L100.511 53.4318H97.4886L91.0568 37.4773H90.8409V53.5H86.7955V30.2273ZM115.614 53.5V36.0455H119.727V53.5H115.614ZM117.682 33.5682C117.03 33.5682 116.47 33.3523 116 32.9205C115.53 32.4811 115.295 31.9545 115.295 31.3409C115.295 30.7197 115.53 30.1932 116 29.7614C116.47 29.322 117.03 29.1023 117.682 29.1023C118.341 29.1023 118.902 29.322 119.364 29.7614C119.833 30.1932 120.068 30.7197 120.068 31.3409C120.068 31.9545 119.833 32.4811 119.364 32.9205C118.902 33.3523 118.341 33.5682 117.682 33.5682ZM131.571 53.8409C129.829 53.8409 128.332 53.4583 127.082 52.6932C125.84 51.928 124.882 50.8712 124.207 49.5227C123.541 48.1667 123.207 46.6061 123.207 44.8409C123.207 43.0682 123.548 41.5038 124.23 40.1477C124.912 38.7841 125.874 37.7235 127.116 36.9659C128.366 36.2008 129.844 35.8182 131.548 35.8182C132.965 35.8182 134.219 36.0795 135.31 36.6023C136.408 37.1174 137.283 37.8485 137.935 38.7955C138.586 39.7348 138.957 40.8333 139.048 42.0909H135.116C134.957 41.25 134.579 40.5492 133.98 39.9886C133.389 39.4205 132.598 39.1364 131.605 39.1364C130.764 39.1364 130.026 39.3636 129.389 39.8182C128.753 40.2652 128.257 40.9091 127.901 41.75C127.552 42.5909 127.378 43.5985 127.378 44.7727C127.378 45.9621 127.552 46.9848 127.901 47.8409C128.249 48.6894 128.738 49.3447 129.366 49.8068C130.003 50.2614 130.749 50.4886 131.605 50.4886C132.211 50.4886 132.753 50.375 133.23 50.1477C133.715 49.9129 134.12 49.5758 134.446 49.1364C134.772 48.697 134.995 48.1629 135.116 47.5341H139.048C138.95 48.7689 138.586 49.8636 137.957 50.8182C137.329 51.7652 136.473 52.5076 135.389 53.0455C134.306 53.5758 133.033 53.8409 131.571 53.8409ZM142.426 53.5V36.0455H146.415V38.9545H146.597C146.915 37.947 147.46 37.1705 148.233 36.625C149.013 36.072 149.903 35.7955 150.903 35.7955C151.131 35.7955 151.384 35.8068 151.665 35.8295C151.953 35.8447 152.191 35.8712 152.381 35.9091V39.6932C152.206 39.6326 151.93 39.5795 151.551 39.5341C151.18 39.4811 150.82 39.4545 150.472 39.4545C149.722 39.4545 149.047 39.6174 148.449 39.9432C147.858 40.2614 147.392 40.7045 147.051 41.2727C146.71 41.8409 146.54 42.4962 146.54 43.2386V53.5H142.426ZM162.009 53.8409C160.304 53.8409 158.827 53.4659 157.577 52.7159C156.327 51.9659 155.357 50.9167 154.668 49.5682C153.986 48.2197 153.645 46.6439 153.645 44.8409C153.645 43.0379 153.986 41.4583 154.668 40.1023C155.357 38.7462 156.327 37.6932 157.577 36.9432C158.827 36.1932 160.304 35.8182 162.009 35.8182C163.713 35.8182 165.19 36.1932 166.44 36.9432C167.69 37.6932 168.656 38.7462 169.338 40.1023C170.027 41.4583 170.372 43.0379 170.372 44.8409C170.372 46.6439 170.027 48.2197 169.338 49.5682C168.656 50.9167 167.69 51.9659 166.44 52.7159C165.19 53.4659 163.713 53.8409 162.009 53.8409ZM162.031 50.5455C162.955 50.5455 163.728 50.2917 164.349 49.7841C164.971 49.2689 165.433 48.5795 165.736 47.7159C166.046 46.8523 166.202 45.8902 166.202 44.8295C166.202 43.7614 166.046 42.7955 165.736 41.9318C165.433 41.0606 164.971 40.3674 164.349 39.8523C163.728 39.3371 162.955 39.0795 162.031 39.0795C161.084 39.0795 160.296 39.3371 159.668 39.8523C159.046 40.3674 158.58 41.0606 158.27 41.9318C157.967 42.7955 157.815 43.7614 157.815 44.8295C157.815 45.8902 157.967 46.8523 158.27 47.7159C158.58 48.5795 159.046 49.2689 159.668 49.7841C160.296 50.2917 161.084 50.5455 162.031 50.5455ZM187.659 40.6591L183.909 41.0682C183.803 40.6894 183.617 40.3333 183.352 40C183.095 39.6667 182.746 39.3977 182.307 39.1932C181.867 38.9886 181.33 38.8864 180.693 38.8864C179.837 38.8864 179.117 39.072 178.534 39.4432C177.958 39.8144 177.674 40.2955 177.682 40.8864C177.674 41.3939 177.86 41.8068 178.239 42.125C178.625 42.4432 179.261 42.7045 180.148 42.9091L183.125 43.5455C184.777 43.9015 186.004 44.4659 186.807 45.2386C187.617 46.0114 188.027 47.0227 188.034 48.2727C188.027 49.3712 187.705 50.3409 187.068 51.1818C186.439 52.0152 185.564 52.6667 184.443 53.1364C183.322 53.6061 182.034 53.8409 180.58 53.8409C178.443 53.8409 176.723 53.3939 175.42 52.5C174.117 51.5985 173.341 50.3447 173.091 48.7386L177.102 48.3523C177.284 49.1402 177.67 49.7348 178.261 50.1364C178.852 50.5379 179.621 50.7386 180.568 50.7386C181.545 50.7386 182.33 50.5379 182.92 50.1364C183.519 49.7348 183.818 49.2386 183.818 48.6477C183.818 48.1477 183.625 47.7348 183.239 47.4091C182.86 47.0833 182.269 46.8333 181.466 46.6591L178.489 46.0341C176.814 45.6856 175.576 45.0985 174.773 44.2727C173.97 43.4394 173.572 42.3864 173.58 41.1136C173.572 40.0379 173.864 39.1061 174.455 38.3182C175.053 37.5227 175.883 36.9091 176.943 36.4773C178.011 36.0379 179.242 35.8182 180.636 35.8182C182.682 35.8182 184.292 36.2538 185.466 37.125C186.648 37.9962 187.379 39.1742 187.659 40.6591ZM199.04 53.8409C197.335 53.8409 195.858 53.4659 194.608 52.7159C193.358 51.9659 192.388 50.9167 191.699 49.5682C191.017 48.2197 190.676 46.6439 190.676 44.8409C190.676 43.0379 191.017 41.4583 191.699 40.1023C192.388 38.7462 193.358 37.6932 194.608 36.9432C195.858 36.1932 197.335 35.8182 199.04 35.8182C200.744 35.8182 202.222 36.1932 203.472 36.9432C204.722 37.6932 205.688 38.7462 206.369 40.1023C207.059 41.4583 207.403 43.0379 207.403 44.8409C207.403 46.6439 207.059 48.2197 206.369 49.5682C205.688 50.9167 204.722 51.9659 203.472 52.7159C202.222 53.4659 200.744 53.8409 199.04 53.8409ZM199.062 50.5455C199.987 50.5455 200.759 50.2917 201.381 49.7841C202.002 49.2689 202.464 48.5795 202.767 47.7159C203.078 46.8523 203.233 45.8902 203.233 44.8295C203.233 43.7614 203.078 42.7955 202.767 41.9318C202.464 41.0606 202.002 40.3674 201.381 39.8523C200.759 39.3371 199.987 39.0795 199.062 39.0795C198.116 39.0795 197.328 39.3371 196.699 39.8523C196.078 40.3674 195.612 41.0606 195.301 41.9318C194.998 42.7955 194.847 43.7614 194.847 44.8295C194.847 45.8902 194.998 46.8523 195.301 47.7159C195.612 48.5795 196.078 49.2689 196.699 49.7841C197.328 50.2917 198.116 50.5455 199.062 50.5455ZM219.736 36.0455V39.2273H209.418V36.0455H219.736ZM211.997 53.5V34.3977C211.997 33.2235 212.24 32.2462 212.724 31.4659C213.217 30.6856 213.876 30.1023 214.702 29.7159C215.527 29.3295 216.444 29.1364 217.452 29.1364C218.164 29.1364 218.796 29.1932 219.349 29.3068C219.902 29.4205 220.312 29.5227 220.577 29.6136L219.759 32.7955C219.584 32.7424 219.365 32.6894 219.099 32.6364C218.834 32.5758 218.539 32.5455 218.213 32.5455C217.448 32.5455 216.906 32.7311 216.588 33.1023C216.277 33.4659 216.122 33.9886 216.122 34.6705V53.5H211.997ZM231.673 36.0455V39.2273H221.639V36.0455H231.673ZM224.116 31.8636H228.23V48.25C228.23 48.803 228.313 49.2273 228.48 49.5227C228.654 49.8106 228.882 50.0076 229.162 50.1136C229.442 50.2197 229.753 50.2727 230.094 50.2727C230.351 50.2727 230.586 50.2538 230.798 50.2159C231.018 50.178 231.185 50.1439 231.298 50.1136L231.991 53.3295C231.772 53.4053 231.457 53.4886 231.048 53.5795C230.647 53.6705 230.154 53.7235 229.571 53.7386C228.541 53.7689 227.613 53.6136 226.787 53.2727C225.961 52.9242 225.306 52.3864 224.821 51.6591C224.344 50.9318 224.109 50.0227 224.116 48.9318V31.8636Z" fill="black"/>
</svg>
