<svg width="21" height="21" viewBox="0 0 21 21" fill="none" xmlns="http://www.w3.org/2000/svg">
<path d="M14.6563 3.115V1.75C14.6563 1.39125 14.3588 1.09375 14 1.09375C13.6413 1.09375 13.3438 1.39125 13.3438 1.75V3.0625H7.65625V1.75C7.65625 1.39125 7.35875 1.09375 7 1.09375C6.64125 1.09375 6.34375 1.39125 6.34375 1.75V3.115C3.98125 3.33375 2.835 4.7425 2.66 6.83375C2.6425 7.0875 2.8525 7.2975 3.0975 7.2975H17.9025C18.1563 7.2975 18.3663 7.07875 18.34 6.83375C18.165 4.7425 17.0188 3.33375 14.6563 3.115Z" fill="#0C1E33"/>
<path d="M17.5 8.60938H3.5C3.01875 8.60938 2.625 9.00312 2.625 9.48437V14.8744C2.625 17.4994 3.9375 19.2494 7 19.2494H14C17.0625 19.2494 18.375 17.4994 18.375 14.8744V9.48437C18.375 9.00312 17.9812 8.60938 17.5 8.60938ZM8.05875 15.9331C7.97125 16.0119 7.875 16.0731 7.77 16.1169C7.665 16.1606 7.55125 16.1869 7.4375 16.1869C7.32375 16.1869 7.21 16.1606 7.105 16.1169C7 16.0731 6.90375 16.0119 6.81625 15.9331C6.65875 15.7669 6.5625 15.5394 6.5625 15.3119C6.5625 15.0844 6.65875 14.8569 6.81625 14.6906C6.90375 14.6119 7 14.5506 7.105 14.5069C7.315 14.4194 7.56 14.4194 7.77 14.5069C7.875 14.5506 7.97125 14.6119 8.05875 14.6906C8.21625 14.8569 8.3125 15.0844 8.3125 15.3119C8.3125 15.5394 8.21625 15.7669 8.05875 15.9331ZM8.2425 12.5819C8.19875 12.6869 8.1375 12.7831 8.05875 12.8706C7.97125 12.9494 7.875 13.0106 7.77 13.0544C7.665 13.0981 7.55125 13.1244 7.4375 13.1244C7.32375 13.1244 7.21 13.0981 7.105 13.0544C7 13.0106 6.90375 12.9494 6.81625 12.8706C6.7375 12.7831 6.67625 12.6869 6.6325 12.5819C6.58875 12.4769 6.5625 12.3631 6.5625 12.2494C6.5625 12.1356 6.58875 12.0219 6.6325 11.9169C6.67625 11.8119 6.7375 11.7156 6.81625 11.6281C6.90375 11.5494 7 11.4881 7.105 11.4444C7.315 11.3569 7.56 11.3569 7.77 11.4444C7.875 11.4881 7.97125 11.5494 8.05875 11.6281C8.1375 11.7156 8.19875 11.8119 8.2425 11.9169C8.28625 12.0219 8.3125 12.1356 8.3125 12.2494C8.3125 12.3631 8.28625 12.4769 8.2425 12.5819ZM11.1213 12.8706C11.0337 12.9494 10.9375 13.0106 10.8325 13.0544C10.7275 13.0981 10.6137 13.1244 10.5 13.1244C10.3863 13.1244 10.2725 13.0981 10.1675 13.0544C10.0625 13.0106 9.96625 12.9494 9.87875 12.8706C9.72125 12.7044 9.625 12.4769 9.625 12.2494C9.625 12.0219 9.72125 11.7944 9.87875 11.6281C9.96625 11.5494 10.0625 11.4881 10.1675 11.4444C10.3775 11.3481 10.6225 11.3481 10.8325 11.4444C10.9375 11.4881 11.0337 11.5494 11.1213 11.6281C11.2788 11.7944 11.375 12.0219 11.375 12.2494C11.375 12.4769 11.2788 12.7044 11.1213 12.8706Z" fill="#0C1E33"/>
</svg>
