<svg width="11" height="12" viewBox="0 0 11 12" fill="none" xmlns="http://www.w3.org/2000/svg">
<path d="M5.48293 0.541016C5.26814 0.541016 5.06216 0.620416 4.91029 0.761748C4.75841 0.903081 4.67309 1.09477 4.67309 1.29464V9.27558L2.00874 6.7886C1.85624 6.64669 1.64941 6.56696 1.43375 6.56696C1.21809 6.56696 1.01127 6.64669 0.858771 6.7886C0.706276 6.93051 0.620605 7.12298 0.620605 7.32368C0.620605 7.52437 0.706276 7.71684 0.858771 7.85875L4.90794 11.6269C4.98323 11.6975 5.0728 11.7536 5.17148 11.7919C5.27017 11.8301 5.37602 11.8498 5.48293 11.8498C5.58983 11.8498 5.69568 11.8301 5.79437 11.7919C5.89305 11.7536 5.98262 11.6975 6.05791 11.6269L10.1071 7.85875C10.1826 7.78849 10.2425 7.70507 10.2833 7.61326C10.3242 7.52145 10.3452 7.42305 10.3452 7.32368C10.3452 7.2243 10.3242 7.1259 10.2833 7.0341C10.2425 6.94229 10.1826 6.85887 10.1071 6.7886C10.0316 6.71833 9.94193 6.66259 9.84328 6.62457C9.74462 6.58654 9.63888 6.56696 9.5321 6.56696C9.42531 6.56696 9.31958 6.58654 9.22092 6.62457C9.12226 6.66259 9.03262 6.71833 8.95712 6.7886L6.29276 9.27558V1.29464C6.29276 1.09477 6.20744 0.903081 6.05556 0.761748C5.90369 0.620416 5.69771 0.541016 5.48293 0.541016Z" fill="#2D9CDB"/>
</svg>
