<svg width="100%" height="100%" viewBox="0 0 25 33" fill="none" xmlns="http://www.w3.org/2000/svg">
<path fill-rule="evenodd" clip-rule="evenodd" d="M12.4997 3.83366C11.7261 3.83366 10.9843 4.14095 10.4373 4.68793C9.8903 5.23491 9.58301 5.97678 9.58301 6.75033H15.4163C15.4163 5.97678 15.109 5.23491 14.5621 4.68793C14.0151 4.14095 13.2732 3.83366 12.4997 3.83366ZM8.64092 2.37533C9.66905 1.46824 11.0209 0.916992 12.4997 0.916992C13.9784 0.916992 15.3288 1.46824 16.3584 2.37533H21.2497C22.0232 2.37533 22.7651 2.68262 23.3121 3.2296C23.8591 3.77658 24.1663 4.51844 24.1663 5.29199V27.167C24.1663 27.9405 23.8591 28.6824 23.3121 29.2294C22.7651 29.7764 22.0232 30.0837 21.2497 30.0837H3.74967C2.97613 30.0837 2.23426 29.7764 1.68728 29.2294C1.1403 28.6824 0.833008 27.9405 0.833008 27.167V5.29199C0.833008 4.51844 1.1403 3.77658 1.68728 3.2296C2.23426 2.68262 2.97613 2.37533 3.74967 2.37533H8.64092ZM6.85009 5.29199H3.74967V27.167H21.2497V5.29199H18.1493C18.2698 5.75963 18.3311 6.24574 18.333 6.75033V8.20866C18.333 8.59543 18.1794 8.96636 17.9059 9.23986C17.6324 9.51335 17.2614 9.66699 16.8747 9.66699H8.12467C7.7379 9.66699 7.36697 9.51335 7.09348 9.23986C6.81999 8.96636 6.66634 8.59543 6.66634 8.20866V6.75033C6.66829 6.24574 6.72954 5.75963 6.85009 5.29199ZM6.66634 14.042C6.66634 13.6552 6.81999 13.2843 7.09348 13.0108C7.36697 12.7373 7.7379 12.5837 8.12467 12.5837H16.8747C17.2614 12.5837 17.6324 12.7373 17.9059 13.0108C18.1794 13.2843 18.333 13.6552 18.333 14.042C18.333 14.4288 18.1794 14.7997 17.9059 15.0732C17.6324 15.3467 17.2614 15.5003 16.8747 15.5003H8.12467C7.7379 15.5003 7.36697 15.3467 7.09348 15.0732C6.81999 14.7997 6.66634 14.4288 6.66634 14.042ZM6.66634 19.8753C6.66634 19.4886 6.81999 19.1176 7.09348 18.8441C7.36697 18.5706 7.7379 18.417 8.12467 18.417H12.4997C12.8864 18.417 13.2574 18.5706 13.5309 18.8441C13.8044 19.1176 13.958 19.4886 13.958 19.8753C13.958 20.2621 13.8044 20.633 13.5309 20.9065C13.2574 21.18 12.8864 21.3337 12.4997 21.3337H8.12467C7.7379 21.3337 7.36697 21.18 7.09348 20.9065C6.81999 20.633 6.66634 20.2621 6.66634 19.8753Z" fill="#0A111F"/>
</svg>
