<svg width="22" height="22" viewBox="0 0 22 22" fill="none" xmlns="http://www.w3.org/2000/svg">
<path d="M11.3025 2.38477C6.48124 2.38477 2.55249 6.31351 2.55249 11.1348C2.55249 15.956 6.48124 19.8848 11.3025 19.8848C16.1237 19.8848 20.0525 15.956 20.0525 11.1348C20.0525 6.31351 16.1237 2.38477 11.3025 2.38477ZM15.1087 14.2585C14.9862 14.4685 14.7675 14.5823 14.54 14.5823C14.4262 14.5823 14.3125 14.556 14.2075 14.486L11.495 12.8673C10.8212 12.4648 10.3225 11.581 10.3225 10.8023V7.21477C10.3225 6.85602 10.62 6.55852 10.9787 6.55852C11.3375 6.55852 11.635 6.85602 11.635 7.21477V10.8023C11.635 11.1173 11.8975 11.581 12.1687 11.7385L14.8812 13.3573C15.1962 13.541 15.3012 13.9435 15.1087 14.2585Z" fill="#0C1E33"/>
</svg>
