<svg width="22" height="22" viewBox="0 0 22 22" fill="none" xmlns="http://www.w3.org/2000/svg">
<path d="M15.4588 3.74977V2.38477C15.4588 2.02602 15.1613 1.72852 14.8025 1.72852C14.4438 1.72852 14.1463 2.02602 14.1463 2.38477V3.69727H8.45876V2.38477C8.45876 2.02602 8.16126 1.72852 7.80251 1.72852C7.44376 1.72852 7.14626 2.02602 7.14626 2.38477V3.74977C4.78376 3.96852 3.63751 5.37727 3.46251 7.46852C3.44501 7.72227 3.65501 7.93227 3.90001 7.93227H18.705C18.9588 7.93227 19.1688 7.71352 19.1425 7.46852C18.9675 5.37727 17.8213 3.96852 15.4588 3.74977Z" fill="#0C1E33"/>
<path d="M18.3025 9.24414H4.30249C3.82124 9.24414 3.42749 9.63789 3.42749 10.1191V15.5091C3.42749 18.1341 4.73999 19.8841 7.80249 19.8841H14.8025C17.865 19.8841 19.1775 18.1341 19.1775 15.5091V10.1191C19.1775 9.63789 18.7837 9.24414 18.3025 9.24414ZM8.86124 16.5679C8.77374 16.6466 8.67749 16.7079 8.57249 16.7516C8.46749 16.7954 8.35374 16.8216 8.23999 16.8216C8.12624 16.8216 8.01249 16.7954 7.90749 16.7516C7.80249 16.7079 7.70624 16.6466 7.61874 16.5679C7.46124 16.4016 7.36499 16.1741 7.36499 15.9466C7.36499 15.7191 7.46124 15.4916 7.61874 15.3254C7.70624 15.2466 7.80249 15.1854 7.90749 15.1416C8.11749 15.0541 8.36249 15.0541 8.57249 15.1416C8.67749 15.1854 8.77374 15.2466 8.86124 15.3254C9.01874 15.4916 9.11499 15.7191 9.11499 15.9466C9.11499 16.1741 9.01874 16.4016 8.86124 16.5679ZM9.04499 13.2166C9.00124 13.3216 8.93999 13.4179 8.86124 13.5054C8.77374 13.5841 8.67749 13.6454 8.57249 13.6891C8.46749 13.7329 8.35374 13.7591 8.23999 13.7591C8.12624 13.7591 8.01249 13.7329 7.90749 13.6891C7.80249 13.6454 7.70624 13.5841 7.61874 13.5054C7.53999 13.4179 7.47874 13.3216 7.43499 13.2166C7.39124 13.1116 7.36499 12.9979 7.36499 12.8841C7.36499 12.7704 7.39124 12.6566 7.43499 12.5516C7.47874 12.4466 7.53999 12.3504 7.61874 12.2629C7.70624 12.1841 7.80249 12.1229 7.90749 12.0791C8.11749 11.9916 8.36249 11.9916 8.57249 12.0791C8.67749 12.1229 8.77374 12.1841 8.86124 12.2629C8.93999 12.3504 9.00124 12.4466 9.04499 12.5516C9.08874 12.6566 9.11499 12.7704 9.11499 12.8841C9.11499 12.9979 9.08874 13.1116 9.04499 13.2166ZM11.9237 13.5054C11.8362 13.5841 11.74 13.6454 11.635 13.6891C11.53 13.7329 11.4162 13.7591 11.3025 13.7591C11.1887 13.7591 11.075 13.7329 10.97 13.6891C10.865 13.6454 10.7687 13.5841 10.6812 13.5054C10.5237 13.3391 10.4275 13.1116 10.4275 12.8841C10.4275 12.6566 10.5237 12.4291 10.6812 12.2629C10.7687 12.1841 10.865 12.1229 10.97 12.0791C11.18 11.9829 11.425 11.9829 11.635 12.0791C11.74 12.1229 11.8362 12.1841 11.9237 12.2629C12.0812 12.4291 12.1775 12.6566 12.1775 12.8841C12.1775 13.1116 12.0812 13.3391 11.9237 13.5054Z" fill="#0C1E33"/>
</svg>
