<svg width="24" height="24" viewBox="0 0 24 24" fill="none" xmlns="http://www.w3.org/2000/svg">
<path d="M9.524 6.69604L12.706 3.51404C13.2155 2.9977 13.822 2.58723 14.4908 2.30628C15.1595 2.02533 15.8773 1.87944 16.6026 1.87701C17.328 1.87458 18.0467 2.01566 18.7173 2.29212C19.3879 2.56859 19.9972 2.97498 20.5101 3.48789C21.0231 4.00081 21.4295 4.61012 21.7059 5.28074C21.9824 5.95135 22.1235 6.67004 22.121 7.3954C22.1186 8.12077 21.9727 8.83849 21.6918 9.50725C21.4108 10.176 21.0003 10.7826 20.484 11.292L19.424 12.352C19.2857 12.4954 19.1202 12.6097 18.9373 12.6884C18.7543 12.7671 18.5575 12.8086 18.3583 12.8104C18.1592 12.8122 17.9616 12.7744 17.7772 12.699C17.5929 12.6237 17.4253 12.5124 17.2844 12.3716C17.1435 12.2309 17.0321 12.0634 16.9566 11.8791C16.881 11.6948 16.843 11.4973 16.8446 11.2981C16.8463 11.099 16.8876 10.9021 16.9661 10.7191C17.0446 10.536 17.1588 10.3705 17.302 10.232L18.363 9.17004C18.8284 8.70043 19.0888 8.06559 19.0873 7.40445C19.0857 6.74331 18.8224 6.10969 18.3548 5.64226C17.8872 5.17483 17.2535 4.91163 16.5924 4.91028C15.9312 4.90893 15.2965 5.16952 14.827 5.63504L11.645 8.81704C11.3009 9.16096 11.0647 9.59781 10.9652 10.074C10.8657 10.5502 10.9074 11.0451 11.085 11.498C11.149 11.6594 11.2143 11.8107 11.281 11.952L11.498 12.416C11.778 13.036 11.898 13.513 11.292 14.12C10.42 14.992 9.615 14.766 8.882 13.703C8.15336 12.6441 7.81861 11.3635 7.93589 10.0834C8.05317 8.80342 8.61507 7.60491 9.524 6.69604ZM3.514 12.706L4.574 11.646C4.85678 11.3727 5.23561 11.2213 5.62891 11.2245C6.02221 11.2278 6.3985 11.3853 6.67675 11.6633C6.95499 11.9413 7.11292 12.3174 7.11652 12.7107C7.12013 13.104 6.96911 13.483 6.696 13.766L5.636 14.827C5.39716 15.0576 5.20663 15.3334 5.07552 15.6384C4.94442 15.9433 4.87536 16.2714 4.87238 16.6033C4.8694 16.9353 4.93256 17.2645 5.05818 17.5718C5.18379 17.879 5.36935 18.1582 5.60401 18.393C5.83868 18.6278 6.11775 18.8135 6.42496 18.9393C6.73216 19.0651 7.06134 19.1284 7.39329 19.1257C7.72524 19.1229 8.05331 19.054 8.35836 18.9231C8.6634 18.7921 8.93932 18.6017 9.17 18.363L12.352 15.181C12.6961 14.8371 12.9323 14.4003 13.0318 13.924C13.1313 13.4478 13.0896 12.9529 12.912 12.5C12.848 12.3387 12.7827 12.1874 12.716 12.046L12.499 11.582C12.219 10.962 12.099 10.484 12.705 9.87804C13.577 9.00604 14.382 9.23204 15.115 10.295C15.8436 11.3539 16.1784 12.6346 16.0611 13.9146C15.9438 15.1947 15.3819 16.3932 14.473 17.302L11.291 20.484C10.7815 21.0004 10.175 21.4108 9.50621 21.6918C8.83746 21.9727 8.11974 22.1186 7.39437 22.1211C6.669 22.1235 5.95032 21.9824 5.2797 21.7059C4.60908 21.4295 3.99977 21.0231 3.48686 20.5102C2.97394 19.9973 2.56755 19.388 2.29109 18.7173C2.01463 18.0467 1.87355 17.328 1.87598 16.6027C1.87841 15.8773 2.0243 15.1596 2.30525 14.4908C2.5862 13.8221 2.99766 13.2155 3.514 12.706Z" fill="#0C1E33"/>
</svg>
