<svg width="22" height="22" viewBox="0 0 22 22" fill="none" xmlns="http://www.w3.org/2000/svg">
<path d="M18.845 8.02852C17.9263 3.98602 14.4 2.16602 11.3025 2.16602C11.3025 2.16602 11.3025 2.16602 11.2938 2.16602C8.20501 2.16602 4.67001 3.97727 3.75126 8.01977C2.72751 12.5348 5.49251 16.3585 7.99501 18.7648C8.92251 19.6573 10.1125 20.1035 11.3025 20.1035C12.4925 20.1035 13.6825 19.6573 14.6013 18.7648C17.1038 16.3585 19.8688 12.5435 18.845 8.02852ZM11.3025 12.4123C9.78001 12.4123 8.54626 11.1785 8.54626 9.65602C8.54626 8.13352 9.78001 6.89977 11.3025 6.89977C12.825 6.89977 14.0588 8.13352 14.0588 9.65602C14.0588 11.1785 12.825 12.4123 11.3025 12.4123Z" fill="#0C1E33"/>
</svg>
