<svg width="17" height="18" viewBox="0 0 17 18" fill="none" xmlns="http://www.w3.org/2000/svg">
<path d="M16.4276 15.932L14.0943 13.532C14.9831 12.4654 15.5387 11.2654 15.7609 9.93203C15.9831 8.5987 15.872 7.28759 15.4276 5.9987C14.9831 4.70981 14.2498 3.5987 13.2276 2.66536C12.2054 1.73203 11.0276 1.12092 9.69425 0.832031C8.36092 0.543142 7.0387 0.576475 5.72759 0.93203C4.41648 1.28759 3.27203 1.95425 2.29425 2.93203C1.31648 3.90981 0.649808 5.05425 0.294253 6.36536C-0.0613027 7.67648 -0.094636 8.9987 0.194253 10.332C0.483142 11.6654 1.09425 12.8431 2.02759 13.8654C2.96092 14.8876 4.07203 15.6209 5.36092 16.0654C6.64981 16.5098 7.96092 16.6209 9.29425 16.3987C10.6276 16.1765 11.8276 15.6209 12.8943 14.732L15.2943 17.0654C15.4276 17.2431 15.6165 17.332 15.8609 17.332C16.1054 17.332 16.3054 17.2543 16.4609 17.0987C16.6165 16.9431 16.6943 16.7431 16.6943 16.4987C16.6943 16.2543 16.6054 16.0654 16.4276 15.932ZM1.69425 8.5987C1.69425 7.44314 1.97203 6.38759 2.52759 5.43203C3.08314 4.47647 3.8387 3.72092 4.79425 3.16536C5.74981 2.60981 6.79425 2.33203 7.92759 2.33203C9.06092 2.33203 10.1054 2.60981 11.0609 3.16536C12.0165 3.72092 12.7831 4.47647 13.3609 5.43203C13.9387 6.38759 14.2276 7.43203 14.2276 8.56536C14.2276 9.6987 13.9387 10.7431 13.3609 11.6987C12.7831 12.6543 12.0165 13.4098 11.0609 13.9654C10.1054 14.5209 9.06092 14.7987 7.92759 14.7987C6.79425 14.7987 5.74981 14.5209 4.79425 13.9654C3.8387 13.4098 3.08314 12.6543 2.52759 11.6987C1.97203 10.7431 1.69425 9.70981 1.69425 8.5987Z" fill="white"/>
</svg>
