<svg width="19" height="19" viewBox="0 0 19 19" fill="none" xmlns="http://www.w3.org/2000/svg">
<path d="M11.6458 6.39583L12.6042 7.35417L3.16667 16.7917H2.20833V15.8333L11.6458 6.39583ZM15.3958 0.125C15.1354 0.125 14.8646 0.229167 14.6667 0.427083L12.7604 2.33333L16.6667 6.23958L18.5729 4.33333C18.6695 4.23696 18.7461 4.1225 18.7984 3.99648C18.8506 3.87047 18.8775 3.73538 18.8775 3.59896C18.8775 3.46253 18.8506 3.32745 18.7984 3.20143C18.7461 3.07542 18.6695 2.96095 18.5729 2.86458L16.1354 0.427083C15.9271 0.21875 15.6667 0.125 15.3958 0.125ZM11.6458 3.44792L0.125 14.9687V18.875H4.03125L15.5521 7.35417L11.6458 3.44792Z" fill="#E2E0E0"/>
</svg>
