<svg width="24" height="24" viewBox="0 0 24 24" fill="none" xmlns="http://www.w3.org/2000/svg">
<path fill-rule="evenodd" clip-rule="evenodd" d="M3.75 1.56836C3.55109 1.56836 3.36032 1.64738 3.21967 1.78803C3.07902 1.92868 3 2.11945 3 2.31836V18.6834C3 18.8823 3.07902 19.073 3.21967 19.2137C3.36032 19.3543 3.55109 19.4334 3.75 19.4334H17.25C17.4489 19.4334 17.6397 19.3543 17.7803 19.2137C17.921 19.073 18 18.8823 18 18.6834V8.04686C18.0002 7.94615 17.9801 7.84644 17.9409 7.75366C17.9018 7.66089 17.8443 7.57695 17.772 7.50686L11.8665 1.78286C11.7268 1.64667 11.5396 1.57027 11.3445 1.56986L3.75 1.56836ZM15.399 7.29686L12.0945 4.09136V7.29686H15.399ZM9 8.25086H6V6.75086H9V8.25086ZM15 12.0009H6V10.5009H15V12.0009ZM6 15.7509H15V14.2509H6V15.7509Z" fill="white"/>
<path d="M19.5 11.25V21H6.75V22.5H20.25C20.4489 22.5 20.6397 22.421 20.7803 22.2803C20.921 22.1397 21 21.9489 21 21.75V11.25H19.5Z" fill="#191D23"/>
</svg>
