<svg width="60" height="52" viewBox="0 0 60 52" fill="none" xmlns="http://www.w3.org/2000/svg">
<rect x="0.611328" y="21.6858" width="59.2759" height="29.638" fill="url(#paint0_linear_457_10347)"/>
<mask id="mask0_457_10347" style="mask-type:luminance" maskUnits="userSpaceOnUse" x="0" y="21" width="60" height="31">
<rect x="0.611328" y="21.6858" width="59.2759" height="29.638" fill="white"/>
</mask>
<g mask="url(#mask0_457_10347)">
<rect opacity="0.3" x="24.3223" y="63.5298" width="68.1849" height="16.4149" transform="rotate(-30 24.3223 63.5298)" fill="white"/>
<path d="M32.5277 35.1038C32.15 35.1038 31.8438 34.7976 31.8438 34.4199C31.8438 34.0422 32.15 33.736 32.5277 33.736H45.2294C45.6072 33.736 45.9134 34.0422 45.9134 34.4199C45.9134 34.7976 45.6072 35.1038 45.2294 35.1038H32.5277Z" fill="white"/>
<path opacity="0.15" fill-rule="evenodd" clip-rule="evenodd" d="M0.611328 21.6858H17.4818V51.7791H0.611328V21.6858Z" fill="#001D4B"/>
<path fill-rule="evenodd" clip-rule="evenodd" d="M-9.48242 50.4107C-9.48242 56.7062 -4.37892 61.8097 1.91657 61.8097C8.21206 61.8097 13.3156 56.7062 13.3156 50.4107C13.3156 44.1152 8.21206 39.0117 1.91657 39.0117C-4.37892 39.0117 -9.48242 44.1152 -9.48242 50.4107ZM8.75492 50.4105C8.75492 54.1878 5.69282 57.2499 1.91552 57.2499C-1.86177 57.2499 -4.92387 54.1878 -4.92387 50.4105C-4.92387 46.6332 -1.86177 43.5711 1.91552 43.5711C5.69282 43.5711 8.75492 46.6332 8.75492 50.4105Z" fill="#E0987C"/>
<path d="M0.611328 27.7356V27.1968H59.8873V27.7356H0.611328Z" fill="#D33234"/>
</g>
<rect x="8.99414" y="0.30127" width="42.9255" height="21.4627" fill="url(#paint1_linear_457_10347)"/>
<mask id="mask1_457_10347" style="mask-type:luminance" maskUnits="userSpaceOnUse" x="8" y="0" width="44" height="22">
<rect x="8.99414" y="0.30127" width="42.9255" height="21.4627" fill="white"/>
</mask>
<g mask="url(#mask1_457_10347)">
<path d="M31.6484 10.8995H42.6812" stroke="#0069D5" stroke-width="1.95319" stroke-linecap="round" stroke-linejoin="round"/>
<path opacity="0.12" fill-rule="evenodd" clip-rule="evenodd" d="M8.99414 0.30127H21.67V22.0942H8.99414V0.30127Z" fill="#001D4B"/>
<path opacity="0.3" fill-rule="evenodd" clip-rule="evenodd" d="M12.1106 17.2235C12.6171 17.2235 13.0278 16.8128 13.0278 16.3062C13.0278 15.7997 12.6171 15.389 12.1106 15.389C11.604 15.389 11.1934 15.7997 11.1934 16.3062C11.1934 16.8128 11.604 17.2235 12.1106 17.2235ZM12.1106 19.975C12.6171 19.975 13.0278 19.5644 13.0278 19.0578C13.0278 18.5512 12.6171 18.1406 12.1106 18.1406C11.604 18.1406 11.1934 18.5512 11.1934 19.0578C11.1934 19.5644 11.604 19.975 12.1106 19.975ZM15.3195 19.975C15.8261 19.975 16.2367 19.5644 16.2367 19.0578C16.2367 18.5512 15.8261 18.1406 15.3195 18.1406C14.813 18.1406 14.4023 18.5512 14.4023 19.0578C14.4023 19.5644 14.813 19.975 15.3195 19.975ZM19.4492 19.0578C19.4492 19.5644 19.0386 19.975 18.532 19.975C18.0254 19.975 17.6148 19.5644 17.6148 19.0578C17.6148 18.5512 18.0254 18.1406 18.532 18.1406C19.0386 18.1406 19.4492 18.5512 19.4492 19.0578ZM16.2367 16.3062C16.2367 16.8128 15.8261 17.2235 15.3195 17.2235C14.813 17.2235 14.4023 16.8128 14.4023 16.3062C14.4023 15.7997 14.813 15.389 15.3195 15.389C15.8261 15.389 16.2367 15.7997 16.2367 16.3062ZM18.532 17.2235C19.0386 17.2235 19.4492 16.8128 19.4492 16.3062C19.4492 15.7997 19.0386 15.389 18.532 15.389C18.0254 15.389 17.6148 15.7997 17.6148 16.3062C17.6148 16.8128 18.0254 17.2235 18.532 17.2235Z" fill="white"/>
<path d="M8.99414 5.10649V4.78547H51.9196V5.10649H8.99414Z" fill="#0069D5"/>
</g>
<defs>
<linearGradient id="paint0_linear_457_10347" x1="78.6981" y1="35.887" x2="41.4208" y2="-3.57044" gradientUnits="userSpaceOnUse">
<stop stop-color="#FFB966"/>
<stop offset="1" stop-color="#FF895F"/>
<stop offset="1" stop-color="#FF895F"/>
</linearGradient>
<linearGradient id="paint1_linear_457_10347" x1="67.5052" y1="15.5865" x2="55.6675" y2="-8.25882" gradientUnits="userSpaceOnUse">
<stop stop-color="#85D4FF"/>
<stop offset="1" stop-color="#51A4FF"/>
</linearGradient>
</defs>
</svg>
