<svg width="37" height="64" viewBox="0 0 37 64" fill="none" xmlns="http://www.w3.org/2000/svg">
<path fill-rule="evenodd" clip-rule="evenodd" d="M21.7538 23.5023C20.2415 22.86 16.3672 21.6703 16.3672 16.0012C16.3672 10.3321 25.7551 -1.73724 30.997 0.210389C36.239 2.15801 33.9751 16.8037 30.997 20.9844C28.019 25.165 23.2662 24.1446 21.7538 23.5023Z" fill="#C5DDF0"/>
<path d="M19.0194 50.8309H18.6348C18.6348 32.3359 22.0497 17.3004 28.8835 5.72656L29.2147 5.92211C22.4192 17.4311 19.0194 32.4 19.0194 50.8309Z" fill="#7297C4"/>
<path fill-rule="evenodd" clip-rule="evenodd" d="M14.2188 37.1233C16.7083 36.0989 20.2625 32.0075 17.6778 26.1821C15.0931 20.3566 5.9525 13.061 1.645 16.8044C-2.66251 20.5478 2.54667 32.8304 5.2337 35.7055C7.92073 38.5806 11.7293 38.1476 14.2188 37.1233Z" fill="#C5DDF0"/>
<path d="M16.0445 50.8306L15.6599 50.8286C15.7186 39.2027 12.5883 29.911 6.27148 22.9438L6.55641 22.6854C12.9419 29.7284 16.1037 39.1134 16.0445 50.8306Z" fill="#7297C4"/>
<path fill-rule="evenodd" clip-rule="evenodd" d="M24.6483 40.7934C23.2505 39.7429 21.1653 38.33 22.9938 33.6425C24.8222 28.9549 33.0427 24.3209 35.7778 26.9418C38.5129 29.5628 35.2709 38.5581 32.16 41.0034C29.049 43.4486 26.0462 41.844 24.6483 40.7934Z" fill="#C5DDF0"/>
<path d="M22.3982 50.8635L22.0195 50.7961C23.5619 42.1397 26.902 35.2389 32.0409 30.0991L32.3129 30.3711C27.2327 35.4521 23.9274 42.2811 22.3982 50.8635Z" fill="#7297C4"/>
<path fill-rule="evenodd" clip-rule="evenodd" d="M8.96875 48.4705H29.6554V54.0362C29.6554 59.2056 25.4648 63.3962 20.2954 63.3962H18.3288C13.1594 63.3962 8.96875 59.2056 8.96875 54.0362V48.4705Z" fill="url(#paint0_linear_457_10330)"/>
<mask id="mask0_457_10330" style="mask-type:luminance" maskUnits="userSpaceOnUse" x="8" y="48" width="22" height="16">
<path fill-rule="evenodd" clip-rule="evenodd" d="M8.96875 48.4705H29.6554V54.0362C29.6554 59.2056 25.4648 63.3962 20.2954 63.3962H18.3288C13.1594 63.3962 8.96875 59.2056 8.96875 54.0362V48.4705Z" fill="white"/>
</mask>
<g mask="url(#mask0_457_10330)">
<path d="M8.12891 51.532V51.1474H30.1342V51.532H8.12891Z" fill="#7297C4"/>
<path d="M8.12891 54.0994V53.7148H30.1342V54.0994H8.12891Z" fill="#7297C4"/>
</g>
<defs>
<linearGradient id="paint0_linear_457_10330" x1="9.44921" y1="37.8457" x2="-9.4265" y2="70.4534" gradientUnits="userSpaceOnUse">
<stop stop-color="#CBDDEE"/>
<stop offset="1" stop-color="#B8D0E6"/>
<stop offset="1" stop-color="#B8D0E6"/>
</linearGradient>
</defs>
</svg>
